<svg xmlns="http://www.w3.org/2000/svg" viewBox="0 0 32 32" width="32" height="32">
  <defs>
    <style>
      .node { fill: #2E7D32; stroke: #1B5E20; stroke-width: 1; }
      .connection { stroke: #4CAF50; stroke-width: 1.5; opacity: 0.8; }
      .signal { fill: #FFC107; stroke: #FF8F00; stroke-width: 0.5; }
    </style>
  </defs>
  
  <!-- Background circle -->
  <circle cx="16" cy="16" r="15" fill="#E8F5E8" stroke="#2E7D32" stroke-width="1"/>
  
  <!-- Mesh network connections -->
  <line x1="8" y1="8" x2="16" y2="16" class="connection"/>
  <line x1="16" y1="16" x2="24" y2="8" class="connection"/>
  <line x1="8" y1="24" x2="16" y2="16" class="connection"/>
  <line x1="16" y1="16" x2="24" y2="24" class="connection"/>
  <line x1="8" y1="8" x2="8" y2="24" class="connection"/>
  <line x1="24" y1="8" x2="24" y2="24" class="connection"/>
  <line x1="8" y1="8" x2="24" y2="24" class="connection"/>
  <line x1="8" y1="24" x2="24" y2="8" class="connection"/>
  
  <!-- Network nodes -->
  <circle cx="8" cy="8" r="2.5" class="node"/>
  <circle cx="24" cy="8" r="2.5" class="node"/>
  <circle cx="8" cy="24" r="2.5" class="node"/>
  <circle cx="24" cy="24" r="2.5" class="node"/>
  <circle cx="16" cy="16" r="3" class="node"/>
  
  <!-- Signal waves from center node -->
  <circle cx="16" cy="16" r="6" fill="none" stroke="#4CAF50" stroke-width="0.8" opacity="0.4"/>
  <circle cx="16" cy="16" r="9" fill="none" stroke="#4CAF50" stroke-width="0.6" opacity="0.3"/>
  <circle cx="16" cy="16" r="12" fill="none" stroke="#4CAF50" stroke-width="0.4" opacity="0.2"/>
</svg>
